<?xml version="1.0" encoding="utf-8"?>
<!-- Generator: Adobe Illustrator 26.0.1, SVG Export Plug-In . SVG Version: 6.00 Build 0)  -->
<svg version="1.1" id="Layer_1" xmlns="http://www.w3.org/2000/svg" xmlns:xlink="http://www.w3.org/1999/xlink" x="0px" y="0px"
	 viewBox="0 0 100 100" style="enable-background:new 0 0 100 100;" xml:space="preserve">
<style type="text/css">
	.st0{fill:#15F2C0;}
	.st1{opacity:0.1;fill:#15F2C0;}
	.st2{opacity:0.9;fill:#15F2C0;}
	.st3{opacity:0.8;fill:#15F2C0;}
	.st4{opacity:0.7;fill:#15F2C0;}
	.st5{opacity:0.6;fill:#15F2C0;}
	.st6{opacity:0.5;fill:#15F2C0;}
	.st7{opacity:0.4;fill:#15F2C0;}
	.st8{opacity:0.3;fill:#15F2C0;}
	.st9{opacity:0.2;fill:#15F2C0;}
	.st10{opacity:0.1;}
	.st11{opacity:0.2;}
	.st12{opacity:0.4;}
	.st13{fill:#FFFFFF;}
	.st14{opacity:0.31;fill:#15F2C0;}
	.st15{fill:none;stroke:#15F2C0;stroke-width:0.5;stroke-miterlimit:10;}
	.st16{fill:#595959;}
	.st17{opacity:0.05;fill:#15F2C0;}
	.st18{opacity:0.15;fill:#15F2C0;}
	.st19{opacity:0.25;fill:#15F2C0;}
	.st20{opacity:0.35;fill:#15F2C0;}
	.st21{opacity:0.45;fill:#15F2C0;}
	.st22{opacity:0.55;fill:#15F2C0;}
	.st23{opacity:0.65;fill:#15F2C0;}
	.st24{opacity:0.75;fill:#15F2C0;}
	.st25{fill:none;stroke:#15F2C0;stroke-width:1.5;stroke-miterlimit:10;}
	.st26{opacity:0.3;fill:#FFFFFF;}
	.st27{opacity:0.3;}
</style>
<g id="Group_461_00000158734719723352541620000010442043415368774041_">
	<path id="Path_496_00000074427377158670365900000008297723571648470417_" class="st0" d="M71.04,34.2c-1.16-1-2.43-1.86-3.79-2.56
		c-2.76-1.52-5.67-2.74-8.68-3.66c-0.48-0.15-0.44-0.13-0.17-0.55c0.26-0.4,0.74-0.59,1.21-0.48c2.79,0.25,5.53,0.92,8.12,1.99
		c2.24,0.93,4.37,2.12,6.33,3.54c0.26,0.21,0.46,0.49,0.58,0.8c1.9,3.82,3.47,7.81,4.69,11.9c0.93,3.08,1.65,6.22,2.16,9.39
		c0.34,2.06,0.57,4.13,0.7,6.21c0.07,1.2,0.14,2.41,0.14,3.59c0,0.23-0.07,0.45-0.2,0.63c-1.46,2-3.32,3.67-5.46,4.91
		c-2.78,1.64-5.89,2.65-9.1,2.96c-0.61,0.07-1.23,0.1-1.85,0.15c-0.15,0.04-0.3-0.01-0.4-0.12c-1.17-1.41-2.33-2.81-3.5-4.22
		c0.1-0.18,0.25-0.16,0.37-0.2c3.25-0.92,6.21-2.67,8.57-5.08c0.22-0.24,0.42-0.49,0.61-0.75c0.05-0.06,0.2-0.11,0.09-0.22
		s-0.18,0-0.25,0.05c-0.48,0.29-1.01,0.61-1.52,0.89c-2.84,1.55-5.85,2.75-8.98,3.59c-2.52,0.7-5.11,1.14-7.72,1.32
		c-4.75,0.29-9.5-0.25-14.06-1.61c-3.38-0.96-6.62-2.36-9.65-4.15c-0.17-0.12-0.37-0.2-0.58-0.22c0.29,0.33,0.51,0.63,0.75,0.9
		c2.01,2.17,4.51,3.82,7.29,4.82c0.37,0.15,0.76,0.28,1.14,0.4c0.36,0.1,0.29,0.23,0.12,0.46c-0.96,1.17-1.93,2.29-2.82,3.48
		c-0.34,0.52-0.94,0.8-1.56,0.71c-4.11-0.22-8.08-1.55-11.49-3.86c-1.59-1.09-2.99-2.44-4.14-3.99c-0.21-0.28-0.31-0.62-0.3-0.96
		c0.06-3.74,0.43-7.47,1.11-11.15c0.92-4.99,2.34-9.87,4.23-14.58c0.71-1.77,1.51-3.47,2.3-5.15c0.41-0.7,1.02-1.26,1.75-1.62
		c2.9-1.95,6.12-3.37,9.52-4.18c1.37-0.32,2.77-0.53,4.18-0.63c0.48-0.03,0.65,0.25,0.86,0.54c0.13,0.19-0.08,0.18-0.17,0.21
		c-0.65,0.21-1.31,0.41-1.96,0.62c-4.17,1.3-8.08,3.31-11.58,5.93c-0.04,0.03-0.1,0.05-0.13,0.08c-0.03,0.03-0.06,0.06-0.08,0.1
		c0.2,0.11,0.35-0.03,0.48-0.1c1.93-0.93,3.9-1.75,5.92-2.47c2.49-0.88,5.05-1.52,7.66-1.93c3.35-0.53,6.74-0.75,10.13-0.65
		c4.84,0.2,9.61,1.17,14.14,2.88c1.66,0.63,3.29,1.35,4.87,2.15l0.71,0.39C71.6,34.69,71.02,34.21,71.04,34.2 M45.34,53.44
		c0.03-1.51-0.48-2.97-1.45-4.13c-1.96-2.31-5.41-2.59-7.72-0.63c0,0,0,0,0,0l-0.11,0.09c-2.43,2.26-2.73,5.99-0.71,8.62
		c1.45,1.94,4.01,2.68,6.27,1.82c2.34-0.95,3.83-3.27,3.74-5.79 M65.57,54.05c0.11-1.63-0.37-3.24-1.36-4.53
		c-1.8-2.38-5.18-2.86-7.56-1.06c-0.2,0.15-0.39,0.31-0.57,0.48c-2.14,2.21-2.43,5.62-0.68,8.16c1.57,2.41,4.77,3.15,7.24,1.67
		c1.72-0.97,2.81-2.76,2.89-4.73"/>
</g>
</svg>
