<?xml version="1.0" encoding="utf-8"?>
<!-- Generator: Adobe Illustrator 26.0.1, SVG Export Plug-In . SVG Version: 6.00 Build 0)  -->
<svg version="1.1" id="Layer_1" xmlns="http://www.w3.org/2000/svg" xmlns:xlink="http://www.w3.org/1999/xlink" x="0px" y="0px"
	 viewBox="0 0 100 100" style="enable-background:new 0 0 100 100;" xml:space="preserve">
<style type="text/css">
	.st0{fill:#15F2C0;}
	.st1{opacity:0.1;fill:#15F2C0;}
	.st2{opacity:0.9;fill:#15F2C0;}
	.st3{opacity:0.8;fill:#15F2C0;}
	.st4{opacity:0.7;fill:#15F2C0;}
	.st5{opacity:0.6;fill:#15F2C0;}
	.st6{opacity:0.5;fill:#15F2C0;}
	.st7{opacity:0.4;fill:#15F2C0;}
	.st8{opacity:0.3;fill:#15F2C0;}
	.st9{opacity:0.2;fill:#15F2C0;}
	.st10{opacity:0.1;}
	.st11{opacity:0.2;}
	.st12{opacity:0.4;}
	.st13{fill:#FFFFFF;}
	.st14{opacity:0.31;fill:#15F2C0;}
	.st15{fill:none;stroke:#15F2C0;stroke-width:0.5;stroke-miterlimit:10;}
	.st16{fill:#595959;}
	.st17{opacity:0.05;fill:#15F2C0;}
	.st18{opacity:0.15;fill:#15F2C0;}
	.st19{opacity:0.25;fill:#15F2C0;}
	.st20{opacity:0.35;fill:#15F2C0;}
	.st21{opacity:0.45;fill:#15F2C0;}
	.st22{opacity:0.55;fill:#15F2C0;}
	.st23{opacity:0.65;fill:#15F2C0;}
	.st24{opacity:0.75;fill:#15F2C0;}
	.st25{fill:none;stroke:#15F2C0;stroke-width:1.5;stroke-miterlimit:10;}
	.st26{opacity:0.3;fill:#FFFFFF;}
	.st27{opacity:0.3;}
</style>
<g>
	<path class="st0" d="M45.03,81.72c-1.63,0-2.96-1.31-2.98-2.95c-0.01-1.22-0.03-2.44-0.04-3.59c0-0.2-0.04-0.39-0.04-0.36
		c-1.94,0-3.8,0.06-5.65-0.02c-2.19-0.1-4.23-0.67-5.92-2.2c-1.06-0.96-1.55-2.23-2.12-3.48c-0.96-2.09-2.13-4.02-4.22-5.22
		c-0.47-0.27-0.83-0.77-1.18-1.21c-0.38-0.48-0.2-0.9,0.37-0.94c0.83-0.05,1.73-0.11,2.51,0.12c2.2,0.65,3.82,2.09,4.97,4.07
		c0.71,1.22,1.66,2.32,2.87,3.06c2.73,1.65,5.5,1.1,8.25,0.07c0.18-0.07,0.33-0.38,0.37-0.61c0.29-1.76,0.99-3.31,2.23-4.61
		c0.04-0.04,0.03-0.13,0.01-0.02c-2.41-0.61-4.85-1.03-7.15-1.84c-3.66-1.29-6.69-3.5-8.47-7.1c-1.29-2.61-1.96-5.38-2.21-8.27
		c-0.41-4.78,0.37-9.21,3.67-12.94c0.17-0.19,0.23-0.54,0.15-0.78c-1-2.85-0.85-5.69-0.01-8.55c0.52-1.77,0.85-1.98,2.68-1.6
		c0.05,0.01,0.1,0.03,0.15,0.04c2.9,0.77,5.57,2.04,8.1,3.65c0.33,0.21,0.84,0.33,1.21,0.24c6.23-1.57,12.45-1.57,18.68,0
		c0.35,0.09,0.81-0.03,1.15-0.19c1.99-0.99,3.93-2.08,5.93-3.03c1.24-0.58,2.57-0.98,3.98-0.77c0.21,0.03,0.51,0.2,0.58,0.37
		c1.2,3.1,1.65,6.26,0.58,9.48c-0.19,0.57-0.13,0.93,0.22,1.36c0.54,0.66,1.08,1.33,1.51,2.07c2.27,3.86,2.34,7.81,1.88,11.75
		c-0.37,3.12-1.2,6.11-3.02,8.72c-2.47,3.55-6.11,5.34-10.17,6.37c-1.51,0.38-3.07,0.59-4.62,0.88c0.4,0.53,0.83,1.01,1.16,1.55
		c1.16,1.85,1.37,3.94,1.38,6.05c0.01,2.48,0,4.96,0,7.43c0,1.65-1.33,2.98-2.98,2.98H45.03z"/>
</g>
</svg>
