<svg xmlns="http://www.w3.org/2000/svg" width="21.384" height="12.05" viewBox="0 0 21.384 12.05">
  <g id="Group_504" data-name="Group 504" transform="translate(-1823 -647)">
    <g id="Group_49" data-name="Group 49" transform="translate(1823 647)">
      <g id="Group_43" data-name="Group 43" transform="translate(0 0)">
        <path id="Path_82" data-name="Path 82" d="M400.676,16.261a6.024,6.024,0,1,1,6-5.88,5.991,5.991,0,0,1-6,5.88" transform="translate(-394.72 -4.211)" fill="#15f2c0"/>
        <path id="Path_83" data-name="Path 83" d="M429.293,10.854a8.8,8.8,0,0,1,.842-3.907,3.889,3.889,0,0,1,.973-1.274,1.761,1.761,0,0,1,2.336,0,4.732,4.732,0,0,1,1.384,2.265,9.881,9.881,0,0,1,.4,3.628,7.961,7.961,0,0,1-.823,3.285,3.3,3.3,0,0,1-1.236,1.433,1.719,1.719,0,0,1-2.046-.179,3.849,3.849,0,0,1-.978-1.269,8.837,8.837,0,0,1-.852-3.979" transform="translate(-416.656 -4.857)" fill="#15f2c0"/>
        <path id="Path_84" data-name="Path 84" d="M447.333,11.906a20.6,20.6,0,0,1,.4-3.812,5.232,5.232,0,0,1,.277-.841c.077-.192.169-.419.422-.413s.357.227.415.424a12.271,12.271,0,0,1,.414,1.624,19.969,19.969,0,0,1-.087,6.563,8.945,8.945,0,0,1-.324,1.094.864.864,0,0,1-.137.243c-.193.26-.389.258-.578-.01a1.754,1.754,0,0,1-.172-.33,7.379,7.379,0,0,1-.455-2.141c-.083-.8-.116-1.6-.17-2.4" transform="translate(-428.102 -5.879)" fill="#15f2c0"/>
      </g>
    </g>
  </g>
</svg>
