<svg xmlns="http://www.w3.org/2000/svg" width="17.467" height="18.9" viewBox="0 0 17.467 18.9">
  <g id="Group_505" data-name="Group 505" transform="translate(-1825 -688)">
    <g id="Group_48" data-name="Group 48" transform="translate(1825 688)">
      <g id="Group_44" data-name="Group 44" transform="translate(0 0)">
        <path id="Path_85" data-name="Path 85" d="M537.053,18.9a.952.952,0,0,1-.953-.942c0-.389-.009-.78-.014-1.147a.657.657,0,0,0-.012-.116c-.621,0-1.215.021-1.807-.005a2.887,2.887,0,0,1-1.891-.7,3.168,3.168,0,0,1-.677-1.113,3.418,3.418,0,0,0-1.349-1.67,1.508,1.508,0,0,1-.378-.387c-.122-.153-.063-.289.12-.3a2.4,2.4,0,0,1,.8.04,2.7,2.7,0,0,1,1.59,1.3,2.715,2.715,0,0,0,.918.977,2.863,2.863,0,0,0,2.638.021.279.279,0,0,0,.118-.194,2.7,2.7,0,0,1,.713-1.473c.012-.013.008-.042,0-.005-.771-.194-1.551-.329-2.286-.589a4.556,4.556,0,0,1-2.709-2.271,7.288,7.288,0,0,1-.706-2.644,5.231,5.231,0,0,1,1.174-4.137.277.277,0,0,0,.048-.248,4.341,4.341,0,0,1,0-2.732c.166-.565.273-.632.857-.512.016,0,.032.01.048.014a9.125,9.125,0,0,1,2.589,1.168.55.55,0,0,0,.386.076,12.012,12.012,0,0,1,5.971,0,.584.584,0,0,0,.366-.062c.635-.317,1.255-.665,1.9-.968a2.2,2.2,0,0,1,1.273-.247.265.265,0,0,1,.185.12,4.37,4.37,0,0,1,.185,3.031.4.4,0,0,0,.072.436,5.423,5.423,0,0,1,.483.661,5.727,5.727,0,0,1,.6,3.755,5.974,5.974,0,0,1-.964,2.786,5.334,5.334,0,0,1-3.25,2.037c-.484.123-.981.189-1.478.282.128.169.264.324.372.5a3.558,3.558,0,0,1,.44,1.935c0,.792,0,1.584,0,2.376a.952.952,0,0,1-.951.953Z" transform="translate(-529.908 0)" fill="#15f2c0"/>
      </g>
    </g>
  </g>
</svg>
