<svg xmlns="http://www.w3.org/2000/svg" width="17.069" height="17.076" viewBox="0 0 17.069 17.076">
  <g id="Group_502" data-name="Group 502" transform="translate(-1825 -555)">
    <g id="Group_51" data-name="Group 51" transform="translate(1825 555)">
      <g id="Group_46" data-name="Group 46" transform="translate(0)">
        <path id="Path_79" data-name="Path 79" d="M224.162,13.421a3.1,3.1,0,1,0,3.1,3.1,3.1,3.1,0,0,0-3.1-3.1" transform="translate(-215.624 -7.989)" fill="#15f2c0"/>
        <path id="Path_80" data-name="Path 80" d="M225.255,4.3a4.65,4.65,0,0,0-3.7-3.516C221.38.742,221.2.724,221.029.7H212.7c-.256.045-.518.07-.767.14a4.632,4.632,0,0,0-3.509,3.7,4.541,4.541,0,0,0-.087.96q-.01,3.733,0,7.466a4.639,4.639,0,0,0,2.041,3.964,4.545,4.545,0,0,0,2.692.836c2.533,0,5.066.028,7.6-.008A4.563,4.563,0,0,0,225,14.9a7.83,7.83,0,0,0,.359-1.326c.015-.058.022-.119.032-.178V5.062c-.046-.256-.071-.517-.14-.766m-8.39,9.664a4.732,4.732,0,1,1,4.73-4.74,4.753,4.753,0,0,1-4.73,4.74M221.8,5.5a1.19,1.19,0,1,1,1.191-1.186A1.2,1.2,0,0,1,221.8,5.5" transform="translate(-208.327 -0.696)" fill="#15f2c0"/>
      </g>
    </g>
  </g>
</svg>
