<?xml version="1.0" encoding="utf-8"?>
<!-- Generator: Adobe Illustrator 26.0.1, SVG Export Plug-In . SVG Version: 6.00 Build 0)  -->
<svg version="1.1" id="Layer_1" xmlns="http://www.w3.org/2000/svg" xmlns:xlink="http://www.w3.org/1999/xlink" x="0px" y="0px"
	 viewBox="0 0 100 100" style="enable-background:new 0 0 100 100;" xml:space="preserve">
<style type="text/css">
	.st0{fill:#15F2C0;}
	.st1{opacity:0.1;fill:#15F2C0;}
	.st2{opacity:0.9;fill:#15F2C0;}
	.st3{opacity:0.8;fill:#15F2C0;}
	.st4{opacity:0.7;fill:#15F2C0;}
	.st5{opacity:0.6;fill:#15F2C0;}
	.st6{opacity:0.5;fill:#15F2C0;}
	.st7{opacity:0.4;fill:#15F2C0;}
	.st8{opacity:0.3;fill:#15F2C0;}
	.st9{opacity:0.2;fill:#15F2C0;}
	.st10{opacity:0.1;}
	.st11{opacity:0.2;}
	.st12{opacity:0.4;}
	.st13{fill:#FFFFFF;}
	.st14{opacity:0.31;fill:#15F2C0;}
	.st15{fill:none;stroke:#15F2C0;stroke-width:0.5;stroke-miterlimit:10;}
	.st16{fill:#595959;}
	.st17{opacity:0.05;fill:#15F2C0;}
	.st18{opacity:0.15;fill:#15F2C0;}
	.st19{opacity:0.25;fill:#15F2C0;}
	.st20{opacity:0.35;fill:#15F2C0;}
	.st21{opacity:0.45;fill:#15F2C0;}
	.st22{opacity:0.55;fill:#15F2C0;}
	.st23{opacity:0.65;fill:#15F2C0;}
	.st24{opacity:0.75;fill:#15F2C0;}
	.st25{fill:none;stroke:#15F2C0;stroke-width:1.5;stroke-miterlimit:10;}
	.st26{opacity:0.3;fill:#FFFFFF;}
	.st27{opacity:0.3;}
</style>
<g>
	<path class="st0" d="M31.5,75.7C18.15,75.49,8.01,64.92,8.22,51.46c0.2-12.58,10.99-23.07,23.49-22.84
		c13.28,0.25,23.47,10.81,23.23,24.1C54.71,65.44,44.04,75.89,31.5,75.7z"/>
	<path class="st0" d="M57.6,52.05c0.06-5.28,0.88-10.45,3.29-15.27c0.95-1.9,2.16-3.6,3.8-4.98c2.76-2.31,6.35-2.32,9.13-0.01
		c2.81,2.33,4.29,5.49,5.41,8.85c1.53,4.61,1.79,9.37,1.57,14.18c-0.21,4.5-1.16,8.81-3.22,12.84c-1.15,2.25-2.59,4.29-4.83,5.6
		c-2.68,1.56-5.6,1.27-8-0.7c-1.65-1.36-2.87-3.06-3.82-4.96C58.47,62.72,57.65,57.5,57.6,52.05z"/>
	<path class="st0" d="M83.37,52.17c0.12-5.02,0.5-9.99,1.55-14.9c0.24-1.12,0.66-2.22,1.08-3.29c0.3-0.75,0.66-1.64,1.65-1.62
		c0.97,0.02,1.4,0.89,1.62,1.65c0.62,2.09,1.3,4.2,1.62,6.35c1.28,8.56,1.21,17.12-0.34,25.65c-0.26,1.45-0.81,2.86-1.26,4.28
		c-0.11,0.34-0.32,0.66-0.54,0.95c-0.75,1.02-1.52,1.01-2.26-0.04c-0.28-0.39-0.49-0.84-0.67-1.29c-1.13-2.67-1.48-5.53-1.78-8.37
		C83.71,58.43,83.58,55.29,83.37,52.17z"/>
</g>
</svg>
