<svg xmlns="http://www.w3.org/2000/svg" width="18.15" height="13.117" viewBox="0 0 18.15 13.117">
  <g id="Group_500" data-name="Group 500" transform="translate(-1824 -468)">
    <g id="Group_47" data-name="Group 47" transform="translate(1824 468)">
      <g id="Group_45" data-name="Group 45" transform="translate(0 0)">
        <path id="Path_86" data-name="Path 86" d="M9.02,9.8l-1.7-1.477Q3.79,5.237.251,2.16a.374.374,0,0,1-.1-.547,1.14,1.14,0,0,1,.935-.593,2.008,2.008,0,0,1,.215,0q7.825,0,15.65,0a1.219,1.219,0,0,1,1.122.558.249.249,0,0,1-.059.383Q15.285,4.321,12.563,6.7L9.02,9.8" transform="translate(-0.051 -1.013)" fill="#15f2c0"/>
        <path id="Path_87" data-name="Path 87" d="M12.51,22.926c.306.27.6.536.907.8,1.546,1.35,3.089,2.7,4.643,4.042a.275.275,0,0,1,.055.428,1.156,1.156,0,0,1-.94.542c-.116.009-.233,0-.35,0H1.339a1.129,1.129,0,0,1-1.193-.753L5.79,23.063c.165.15.327.3.493.446q1.123.983,2.248,1.963A.707.707,0,0,0,9.6,25.466q1.364-1.2,2.725-2.395c.053-.046.11-.088.182-.146" transform="translate(-0.097 -15.624)" fill="#15f2c0"/>
        <path id="Path_88" data-name="Path 88" d="M39.857,12.164l4.869-4.24v8.482l-4.869-4.243" transform="translate(-26.576 -5.621)" fill="#15f2c0"/>
        <path id="Path_89" data-name="Path 89" d="M0,16.869V8.487L4.809,12.68,0,16.869" transform="translate(0 -5.997)" fill="#15f2c0"/>
      </g>
    </g>
  </g>
</svg>
