<?xml version="1.0" encoding="utf-8"?>
<!-- Generator: Adobe Illustrator 26.0.1, SVG Export Plug-In . SVG Version: 6.00 Build 0)  -->
<svg version="1.1" id="Layer_1" xmlns="http://www.w3.org/2000/svg" xmlns:xlink="http://www.w3.org/1999/xlink" x="0px" y="0px"
	 viewBox="0 0 100 100" style="enable-background:new 0 0 100 100;" xml:space="preserve">
<style type="text/css">
	.st0{fill:#15F2C0;}
	.st1{opacity:0.1;fill:#15F2C0;}
	.st2{opacity:0.9;fill:#15F2C0;}
	.st3{opacity:0.8;fill:#15F2C0;}
	.st4{opacity:0.7;fill:#15F2C0;}
	.st5{opacity:0.6;fill:#15F2C0;}
	.st6{opacity:0.5;fill:#15F2C0;}
	.st7{opacity:0.4;fill:#15F2C0;}
	.st8{opacity:0.3;fill:#15F2C0;}
	.st9{opacity:0.2;fill:#15F2C0;}
	.st10{opacity:0.1;}
	.st11{opacity:0.2;}
	.st12{opacity:0.4;}
	.st13{fill:#FFFFFF;}
	.st14{opacity:0.31;fill:#15F2C0;}
	.st15{fill:none;stroke:#15F2C0;stroke-width:0.5;stroke-miterlimit:10;}
	.st16{fill:#595959;}
	.st17{opacity:0.05;fill:#15F2C0;}
	.st18{opacity:0.15;fill:#15F2C0;}
	.st19{opacity:0.25;fill:#15F2C0;}
	.st20{opacity:0.35;fill:#15F2C0;}
	.st21{opacity:0.45;fill:#15F2C0;}
	.st22{opacity:0.55;fill:#15F2C0;}
	.st23{opacity:0.65;fill:#15F2C0;}
	.st24{opacity:0.75;fill:#15F2C0;}
	.st25{fill:none;stroke:#15F2C0;stroke-width:1.5;stroke-miterlimit:10;}
	.st26{opacity:0.3;fill:#FFFFFF;}
	.st27{opacity:0.3;}
</style>
<path class="st0" d="M81.13,46.58c-0.28,1.67-0.56,3.35-0.84,5.02c-1.25,7.55-2.5,15.1-3.96,22.62c-0.07,0.37-0.16,0.74-0.24,1.11
	c-0.27,0.67-0.47,1.36-0.8,2c-1.12,2.21-2.62,2.91-5.02,2.37c-1.53-0.34-2.88-1.09-4.14-1.99c-3.53-2.5-7.18-4.81-10.74-7.26
	c-0.11-0.08-0.24-0.14-0.36-0.21c-1.98-1.46-4.07-2.77-6.1-4.16c-0.71-0.48-1.42-0.97-2.04-1.58c-1.63-1.6-1.72-3.05-0.26-4.8
	c1.13-1.36,2.45-2.54,3.73-3.75c4.91-4.64,9.92-9.17,14.67-13.97c0.62-0.63,1.19-1.3,1.78-1.95c0.36-0.39,0.36-0.83,0.13-1.28
	c-0.23-0.43-0.63-0.43-1.05-0.4c-0.51,0.04-0.9,0.32-1.31,0.57c-4.15,2.58-8.18,5.35-12.24,8.06c-4.41,2.95-8.8,5.93-13.21,8.88
	c-1.66,1.11-3.43,1.97-5.47,2.18c-1.68,0.17-3.29-0.26-4.89-0.63c-2.37-0.55-4.67-1.33-7-2.05c-1.26-0.39-2.51-0.76-3.68-1.36
	c-0.42-0.21-0.85-0.44-1.12-0.84c-0.71-1.03-0.61-1.88,0.56-2.87c1.64-1.4,3.72-1.97,5.62-2.88c0.6-0.29,1.21-0.54,1.82-0.82
	c1.3-0.55,2.61-1.08,3.91-1.64c2.68-1.15,5.36-2.32,8.03-3.47c4.6-1.99,9.21-3.98,13.82-5.96c4.77-2.05,9.54-4.1,14.36-6.03
	c3.95-1.58,7.86-3.26,11.93-4.51c1.29-0.4,2.61-0.77,4-0.46c1.68,0.37,2.21,1.11,2.41,2.87c0.16,1.37-0.1,2.7-0.23,4.04
	c-0.21,2.19-0.51,4.37-0.83,6.55c-0.39,2.69-0.8,5.39-1.2,8.08C81.13,46.25,81.14,46.42,81.13,46.58z"/>
</svg>
