<?xml version="1.0" encoding="utf-8"?>
<!-- Generator: Adobe Illustrator 26.0.1, SVG Export Plug-In . SVG Version: 6.00 Build 0)  -->
<svg version="1.1" id="Layer_1" xmlns="http://www.w3.org/2000/svg" xmlns:xlink="http://www.w3.org/1999/xlink" x="0px" y="0px"
	 viewBox="0 0 100 100" style="enable-background:new 0 0 100 100;" xml:space="preserve">
<style type="text/css">
	.st0{fill:#15F2C0;}
	.st1{opacity:0.1;fill:#15F2C0;}
	.st2{opacity:0.9;fill:#15F2C0;}
	.st3{opacity:0.8;fill:#15F2C0;}
	.st4{opacity:0.7;fill:#15F2C0;}
	.st5{opacity:0.6;fill:#15F2C0;}
	.st6{opacity:0.5;fill:#15F2C0;}
	.st7{opacity:0.4;fill:#15F2C0;}
	.st8{opacity:0.3;fill:#15F2C0;}
	.st9{opacity:0.2;fill:#15F2C0;}
	.st10{opacity:0.1;}
	.st11{opacity:0.2;}
	.st12{opacity:0.4;}
	.st13{fill:#FFFFFF;}
	.st14{opacity:0.31;fill:#15F2C0;}
	.st15{fill:none;stroke:#15F2C0;stroke-width:0.5;stroke-miterlimit:10;}
	.st16{fill:#595959;}
	.st17{opacity:0.05;fill:#15F2C0;}
	.st18{opacity:0.15;fill:#15F2C0;}
	.st19{opacity:0.25;fill:#15F2C0;}
	.st20{opacity:0.35;fill:#15F2C0;}
	.st21{opacity:0.45;fill:#15F2C0;}
	.st22{opacity:0.55;fill:#15F2C0;}
	.st23{opacity:0.65;fill:#15F2C0;}
	.st24{opacity:0.75;fill:#15F2C0;}
	.st25{fill:none;stroke:#15F2C0;stroke-width:1.5;stroke-miterlimit:10;}
	.st26{opacity:0.3;fill:#FFFFFF;}
	.st27{opacity:0.3;}
</style>
<g id="Logo_00000082344049243866222750000016726107759261437344_">
	<path id="white_background_00000117651496418135387380000012817522333237269688_" class="st0" d="M76.45,38.59
		c0.04,0.59,0.04,1.17,0.04,1.76c0,18.03-13.73,38.83-38.83,38.83v-0.01c-7.42,0.01-14.68-2.11-20.92-6.12
		c1.08,0.13,2.16,0.19,3.25,0.2c6.15,0.01,12.12-2.06,16.95-5.85c-5.84-0.11-10.96-3.92-12.75-9.48c2.05,0.39,4.15,0.31,6.16-0.24
		C23.98,56.4,19.4,50.8,19.4,44.31c0-0.06,0-0.12,0-0.17c1.9,1.06,4.02,1.64,6.19,1.71c-6-4.01-7.85-11.99-4.22-18.22
		c6.93,8.53,17.15,13.71,28.13,14.26c-1.1-4.74,0.4-9.71,3.95-13.04c5.5-5.17,14.14-4.9,19.31,0.59c3.06-0.6,5.99-1.72,8.67-3.31
		c-1.02,3.16-3.15,5.84-6,7.55c2.71-0.32,5.35-1.04,7.84-2.15C81.43,34.26,79.12,36.65,76.45,38.59z"/>
</g>
</svg>
